# xmcd CD database file generated by freedbAccess_ocx
#
# Track frame offsets:
#       150
#       13842
#       30212
#       46098
#       61208
#       72184
#       92313
#       108287
#       124117
#       137299
#       150857
#       165396
#       178669
#       194314
#
# Disc length: 2802 seconds
#
# Revision: 0
# Processed by: cddbd v1.5.2PL0 Copyright (c) Steve Scherf et al.
# Submitted via: CDnGo 2.00
#
DISCID=9a0af00e
DTITLE=Arthur Ebeling - You Handsome Devil
DYEAR=2009
DGENRE=R&B
TTITLE0=Rita
TTITLE1=Sunset
TTITLE2=Tonite
TTITLE3=Strugglin'
TTITLE4=Moon River
TTITLE5=A Little Lovin'
TTITLE6=Lonely
TTITLE7=Popeye
TTITLE8=Dreamland
TTITLE9=Hungry
TTITLE10=Far Away
TTITLE11=Gettin' Over You
TTITLE12=Caravan
TTITLE13=Rambler
EXTD=
EXTT0=
EXTT1=
EXTT2=
EXTT3=
EXTT4=
EXTT5=
EXTT6=
EXTT7=
EXTT8=
EXTT9=
EXTT10=
EXTT11=
EXTT12=
EXTT13=
PLAYORDER=
